<svg width="158" height="36" viewBox="0 0 158 36" fill="none" xmlns="http://www.w3.org/2000/svg">
<path d="M12.798 4.73402C20.106 4.73402 26.064 10.674 26.064 18C26.064 25.326 20.124 31.266 12.798 31.266H4.086V4.73402H12.798ZM12.798 0.666016H0V35.352H12.798C22.374 35.352 30.132 27.594 30.132 18.018C30.132 8.44202 22.374 0.666016 12.798 0.666016Z" fill="#295077"/>
<path d="M66.258 25.6499C66.258 30.9959 61.902 35.3339 56.574 35.3339H46.314C44.064 35.3339 42.228 33.4979 42.228 31.2479H56.556C59.652 31.2479 62.172 28.7279 62.172 25.6319C62.172 22.5359 59.652 20.0159 56.556 20.0159H51.912C46.602 20.0159 42.264 15.7139 42.228 10.4039V10.3139C42.228 4.96788 46.584 0.629883 51.912 0.629883H66.24C66.24 2.87988 64.422 4.71588 62.154 4.71588H51.894C48.798 4.71588 46.278 7.23588 46.278 10.3319C46.278 13.4279 48.798 15.9479 51.894 15.9479H56.538C61.902 15.9659 66.258 20.3039 66.258 25.6499Z" fill="#295077"/>
<path d="M91.9621 25.6499C91.9621 30.9959 87.6061 35.3339 82.2781 35.3339H72.0181C69.7681 35.3339 67.9321 33.4979 67.9321 31.2479H82.2601C85.3561 31.2479 87.8761 28.7279 87.8761 25.6319C87.8761 22.5359 85.3561 20.0159 82.2601 20.0159H77.6161C72.3061 20.0159 67.9681 15.7139 67.9321 10.4039V10.3139C67.9321 4.96788 72.2881 0.629883 77.6161 0.629883H91.9441C91.9441 2.87988 90.1261 4.71588 87.8581 4.71588H77.5981C74.5021 4.71588 71.9821 7.23588 71.9821 10.3319C71.9821 13.4279 74.5021 15.9479 77.5981 15.9479H82.2421C87.6241 15.9659 91.9621 20.3039 91.9621 25.6499Z" fill="#295077"/>
<path d="M38.0518 4.73395V35.334C35.8018 35.334 33.9658 33.5159 33.9658 31.2479V0.647949C36.2158 0.647949 38.0518 2.48395 38.0518 4.73395Z" fill="#295077"/>
<path d="M117.774 30.51C117.648 30.564 117.522 30.618 117.414 30.672C115.668 31.464 113.724 31.914 111.672 31.914C104.004 31.914 97.7579 25.668 97.7579 18C97.7579 10.332 104.004 4.086 111.672 4.086C113.778 4.086 115.758 4.554 117.54 5.382C117.576 5.4 117.612 5.418 117.63 5.436C118.134 5.67 118.71 5.796 119.304 5.796C120.366 5.796 121.32 5.4 122.058 4.734C122.13 4.662 122.202 4.59 122.274 4.518L122.886 3.906C122.85 3.888 122.832 3.852 122.796 3.834C120.69 2.178 118.188 0.972 115.452 0.396C114.246 0.144 112.986 0 111.672 0C101.736 0 93.6719 8.064 93.6719 18C93.6719 27.936 101.736 36 111.672 36C112.968 36 114.228 35.856 115.452 35.604C118.188 35.028 120.672 33.822 122.796 32.166C122.832 32.148 122.85 32.112 122.886 32.094L122.202 31.41C120.996 30.222 119.232 29.916 117.774 30.51Z" fill="#295077"/>
<path d="M139.392 0C129.456 0 121.392 8.064 121.392 18C121.392 27.954 129.456 36 139.392 36C149.328 36 157.392 27.936 157.392 18C157.374 8.064 149.328 0 139.392 0ZM138.438 18.684C138.438 19.962 138.348 21.096 137.196 22.266C136.278 23.202 135.108 23.652 133.542 23.652C131.994 23.652 130.662 23.166 129.87 22.32C128.916 21.276 128.79 19.908 128.79 18.684V12.33H131.724V18.882C131.724 19.278 131.724 20.016 132.264 20.538C132.588 20.844 133.11 21.06 133.578 21.06C134.046 21.06 134.55 20.88 134.856 20.592C135.486 20.052 135.486 19.278 135.486 18.684V12.348H138.42V18.684H138.438ZM147.24 23.418L143.586 18.756V23.418H140.652V12.348H143.586V16.776L147.006 12.348H150.66L150.588 12.42L146.25 17.586L151.038 23.4H147.24V23.418Z" fill="#295077"/>
</svg>
